<?xml version="1.0" encoding="utf-8"?>
<svg viewBox="0 0 16 12" fill="none" xmlns="http://www.w3.org/2000/svg">
  <path d="M 8.316 6.989 C 8.028 6.989 7.748 6.881 7.509 6.677 C 7.271 6.472 7.085 6.182 6.974 5.842 C 6.865 5.502 6.836 5.129 6.892 4.769 C 6.948 4.408 7.086 4.077 7.289 3.817 C 7.492 3.556 7.75 3.38 8.033 3.309 C 8.314 3.236 8.607 3.273 8.872 3.414 C 9.137 3.555 9.364 3.792 9.523 4.099 C 9.682 4.404 9.768 4.764 9.768 5.131 C 9.768 5.624 9.614 6.096 9.343 6.445 C 9.07 6.793 8.701 6.989 8.316 6.989 Z M 8.316 4.015 C 8.143 4.015 7.975 4.081 7.832 4.204 C 7.689 4.327 7.578 4.5 7.511 4.704 C 7.446 4.909 7.429 5.133 7.461 5.349 C 7.496 5.565 7.578 5.764 7.7 5.92 C 7.822 6.075 7.977 6.181 8.146 6.225 C 8.315 6.268 8.491 6.246 8.65 6.162 C 8.809 6.077 8.945 5.935 9.04 5.751 C 9.136 5.568 9.188 5.352 9.188 5.131 C 9.188 4.835 9.095 4.552 8.932 4.343 C 8.768 4.133 8.547 4.016 8.316 4.015 Z" fill="#A7A7A7" style=""/>
  <path d="M 8.229 11.195 L 5.485 7.464 C 5.447 7.408 5.41 7.352 5.372 7.295 C 4.903 6.583 4.65 5.714 4.651 4.82 C 4.651 3.726 5.028 2.677 5.699 1.903 C 6.37 1.13 7.281 0.695 8.229 0.695 C 9.179 0.695 10.089 1.13 10.76 1.903 C 11.431 2.677 11.809 3.726 11.809 4.82 C 11.809 5.713 11.557 6.582 11.088 7.294 L 11.088 7.295 C 11.088 7.295 10.99 7.443 10.975 7.463 L 8.229 11.195 Z M 5.891 6.843 C 5.892 6.843 5.967 6.959 5.985 6.983 L 8.229 10.036 L 10.477 6.979 C 10.492 6.959 10.568 6.842 10.569 6.842 C 10.952 6.26 11.159 5.55 11.158 4.82 C 11.158 3.925 10.85 3.066 10.3 2.434 C 9.751 1.801 9.006 1.445 8.229 1.445 C 7.453 1.445 6.708 1.801 6.16 2.434 C 5.61 3.066 5.302 3.925 5.302 4.82 C 5.301 5.551 5.508 6.261 5.892 6.843 L 5.891 6.843 Z" fill="#A7A7A7" style=""/>
</svg>